<?xml version="1.0" encoding="UTF-8" standalone="no"?>
<!-- Created with Inkscape (http://www.inkscape.org/) -->

<svg
   width="600"
   height="600"
   viewBox="0 0 158.75 158.75"
   version="1.1"
   id="svg5"
   xml:space="preserve"
   inkscape:version="1.2.1 (9c6d41e410, 2022-07-14)"
   sodipodi:docname="gem.svg"
   xmlns:inkscape="http://www.inkscape.org/namespaces/inkscape"
   xmlns:sodipodi="http://sodipodi.sourceforge.net/DTD/sodipodi-0.dtd"
   xmlns="http://www.w3.org/2000/svg"
   xmlns:svg="http://www.w3.org/2000/svg"><sodipodi:namedview
     id="namedview7"
     pagecolor="#505050"
     bordercolor="#ffffff"
     borderopacity="1"
     inkscape:showpageshadow="0"
     inkscape:pageopacity="0"
     inkscape:pagecheckerboard="1"
     inkscape:deskcolor="#505050"
     inkscape:document-units="mm"
     showgrid="false"
     inkscape:zoom="0.70710678"
     inkscape:cx="791.95959"
     inkscape:cy="421.43564"
     inkscape:window-width="1920"
     inkscape:window-height="1017"
     inkscape:window-x="-8"
     inkscape:window-y="-8"
     inkscape:window-maximized="1"
     inkscape:current-layer="layer1" /><defs
     id="defs2" /><g
     inkscape:label="Layer 1"
     inkscape:groupmode="layer"
     id="layer1"><g
       id="g11386"
       style="image-rendering:auto"
       transform="matrix(13.043068,0,0,16.687533,-985.10306,-1276.6108)"><path
         stroke="none"
         fill="#2c95c2"
         d="m 85.806549,77.190096 1.613958,2.328333 q 0.277813,0.410104 0.277813,0.899584 v 1.058333 q 0,0.396875 -0.185209,0.754062 v 0.01323 q -0.198437,0.343958 -0.529166,0.555625 l -4.484688,2.950104 -0.05292,0.03969 q -0.383646,0.224896 -0.820209,0.224896 h -0.01323 q -0.47625,0 -0.873125,-0.264583 l -4.497916,-2.950104 q -0.33073,-0.211667 -0.515938,-0.568855 v 0.01323 Q 75.527487,81.88645 75.527487,81.489575 v -1.071562 q 0,-0.48948 0.277812,-0.899584 l 1.613958,-2.328333 h 0.01323 q 0.211666,-0.3175 0.555625,-0.502708 0.343958,-0.185209 0.740833,-0.185209 h 5.781146 q 0.383645,0 0.727604,0.185209 0.343958,0.185208 0.568854,0.502708 m -0.648229,0.449792 q -0.119063,-0.15875 -0.291042,-0.251355 l -0.370417,-0.0926 h -5.767916 q -0.198438,0 -0.370417,0.0926 -0.171979,0.09261 -0.277812,0.251355 l -1.613959,2.328333 q -0.14552,0.198437 -0.14552,0.449792 v 1.058333 q 0,0.198437 0.105833,0.383646 l 0.251354,0.277812 4.497917,2.950104 q 0.198437,0.132292 0.436562,0.132292 h 0.01323 q 0.238125,0 0.436563,-0.132292 l 4.484687,-2.950104 0.264584,-0.277812 0.0926,-0.383646 v -1.058333 q 0,-0.251355 -0.132292,-0.449792 L 85.15832,77.639888"
         id="path5539"
         style="stroke-width:0.264583" /><path
         stroke="none"
         fill="#a5dcf3"
         d="m 85.15832,77.639888 1.613958,2.328333 q 0.132292,0.198437 0.132292,0.449792 v 1.058333 l -0.0926,0.383646 -0.264584,0.277812 -4.484687,2.950104 Q 81.864257,85.2202 81.626132,85.2202 h -0.01323 q -0.238125,0 -0.436562,-0.132292 L 76.678424,82.137804 76.42707,81.859992 q -0.105833,-0.185209 -0.105833,-0.383646 v -1.058333 q 0,-0.251355 0.14552,-0.449792 l 1.613959,-2.328333 q 0.105833,-0.15875 0.277812,-0.251355 0.171979,-0.0926 0.370417,-0.0926 h 5.767916 l 0.370417,0.0926 q 0.171979,0.09261 0.291042,0.251355 m 0.9525,3.571875 v -0.79375 l -1.613959,-2.328334 h -5.767916 l -1.613958,2.328334 v 0.79375 0.264583 l 4.497916,2.950104 h 0.01323 l 4.484688,-2.950104 v -0.264583"
         id="path5541"
         style="stroke-width:0.264583" /><path
         stroke="none"
         fill="#78caed"
         d="m 86.11082,81.211763 h -4.497917 -4.497916 v -0.79375 l 1.613958,-2.328334 h 5.767916 l 1.613959,2.328334 v 0.79375"
         id="path5543"
         style="stroke-width:0.264583" /><path
         stroke="none"
         fill="#34b0e4"
         d="m 86.11082,81.211763 v 0.264583 l -4.484688,2.950104 h -0.01323 v -3.214687 h 4.497917"
         id="path5545"
         style="stroke-width:0.264583" /><path
         stroke="none"
         fill="#4bb8e7"
         d="m 77.114987,81.211763 h 4.497916 v 3.214687 l -4.497916,-2.950104 v -0.264583"
         id="path5547"
         style="stroke-width:0.264583" /></g></g></svg>
