<?xml version="1.0" encoding="UTF-8" standalone="no"?>
<svg
   id="Layer_1"
   data-name="Layer 1"
   viewBox="0 0 146 146"
   version="1.1"
   width="24"
   height="24"
   xmlns="http://www.w3.org/2000/svg"
   xmlns:svg="http://www.w3.org/2000/svg">
  <defs
     id="defs4">
    <style
       id="style2">.cls-1{fill:#fff;}.cls-2{fill:#ff4500;}</style>
  </defs>
  <circle
     class="cls-2"
     cx="3.6827947e-07"
     cy="103.23759"
     r="73"
     transform="rotate(-45)"
     id="circle20"
     style="image-rendering:auto" />
  <path
     class="cls-1"
     d="m 117.57056,73.621495 a 9.77,9.77 0 0 0 -16.55,-7 c -6.680003,-4.82 -15.880003,-7.93 -26.130003,-8.29 l 4.45,-20.94 14.55,3.09 a 7,7 0 1 0 0.71,-3.41 l -16.22,-3.45 a 1.73,1.73 0 0 0 -1.31,0.24 1.76,1.76 0 0 0 -0.76,1.1 l -5,23.37 c -10.37,0.29 -19.74,3.37 -26.48,8.29 a 9.76,9.76 0 1 0 -10.76,16 19.37,19.37 0 0 0 -0.23,3 c 0,14.999995 17.5,27.219995 39.08,27.219995 21.58,0 39.090003,-12.19 39.090003,-27.219995 a 19.21,19.21 0 0 0 -0.23,-2.94 9.77,9.77 0 0 0 5.79,-9.06 z m -67.000003,7 a 7,7 0 1 1 7,7 7,7 0 0 1 -7,-7 z m 39,18.43 c -4.77,4.749995 -13.89,5.119995 -16.58,5.119995 -2.69,0 -11.81,-0.37 -16.57,-5.119995 a 1.8101934,1.8101934 0 0 1 2.56,-2.56 c 3,3 9.42,4.069995 14,4.069995 4.58,0 11,-1.069995 14,-4.069995 a 1.8208309,1.8208309 0 0 1 2.59,2.56 z m -1.28,-11.43 a 7,7 0 1 1 7,-7 7,7 0 0 1 -7,7 z"
     id="path24" />
</svg>
