<?xml version="1.0" encoding="UTF-8" standalone="no"?>
<!-- Created with Inkscape (http://www.inkscape.org/) -->

<svg
   width="913mm"
   height="124mm"
   viewBox="0 0 913 124"
   version="1.1"
   id="svg501"
   xmlns="http://www.w3.org/2000/svg"
   xmlns:svg="http://www.w3.org/2000/svg">
  <defs
     id="defs498" />
  <g
     id="layer1">
    <g
       id="g482"
       transform="matrix(48.681627,0,0,52.006114,-1266.9949,-2739.0056)"
       style="display:none">
      <g
         aria-label="ACTION "
         id="text26092"
         style="font-size:2.68238px;fill:#ffffff;stroke:#000000;stroke-width:0;stroke-linecap:square;paint-order:fill markers stroke">
        <path
           d="M 27.791693,54.834274 H 27.515334 L 27.32411,54.290726 h -0.843483 l -0.191224,0.543548 h -0.263261 l 0.709888,-1.950226 h 0.345775 z m -0.547478,-0.766207 -0.341846,-0.957431 -0.343156,0.957431 z"
           id="path1402" />
        <path
           d="m 29.593917,54.692821 q -0.07204,0.03143 -0.130976,0.05894 -0.05763,0.02751 -0.151931,0.05763 -0.0799,0.02488 -0.174198,0.04191 -0.09299,0.01834 -0.205632,0.01834 -0.21218,0 -0.386378,-0.05894 -0.172887,-0.06025 -0.301243,-0.187295 -0.125737,-0.124427 -0.196464,-0.315652 -0.07073,-0.192534 -0.07073,-0.446626 0,-0.240995 0.06811,-0.43091 0.06811,-0.189915 0.196463,-0.32089 0.124427,-0.127046 0.299934,-0.193844 0.176817,-0.0668 0.391617,-0.0668 0.157171,0 0.313032,0.03798 0.157171,0.03798 0.348395,0.133595 v 0.307793 h -0.01965 q -0.1611,-0.134905 -0.319581,-0.196463 -0.15848,-0.06156 -0.339227,-0.06156 -0.148002,0 -0.26719,0.04846 -0.117878,0.04715 -0.21087,0.148003 -0.09037,0.09823 -0.141454,0.248853 -0.04977,0.149312 -0.04977,0.345776 0,0.205631 0.05501,0.353634 0.05632,0.148002 0.144073,0.240995 0.09168,0.09692 0.21349,0.144073 0.123117,0.04584 0.259332,0.04584 0.187295,0 0.351014,-0.06418 0.16372,-0.06418 0.306483,-0.192534 h 0.01834 z"
           id="path1404" />
        <path
           d="m 31.351609,53.114565 h -0.69679 v 1.719709 h -0.259332 v -1.719709 h -0.69679 v -0.230517 h 1.652912 z"
           id="path1406" />
        <path
           d="m 32.301182,54.834274 h -0.770136 v -0.199083 h 0.255402 v -1.55206 h -0.255402 v -0.199083 h 0.770136 v 0.199083 H 32.04578 v 1.55206 h 0.255402 z"
           id="path1408" />
        <path
           d="m 34.196399,53.108016 q 0.119187,0.130976 0.182056,0.32089 0.06418,0.189915 0.06418,0.43091 0,0.240995 -0.06549,0.432219 -0.06418,0.189915 -0.180746,0.316961 -0.120498,0.132286 -0.285527,0.199083 -0.16372,0.0668 -0.37459,0.0668 -0.205632,0 -0.37459,-0.06811 -0.167649,-0.06811 -0.285527,-0.197773 -0.117878,-0.129666 -0.182056,-0.31827 -0.06287,-0.188605 -0.06287,-0.43091 0,-0.238376 0.06287,-0.42698 0.06287,-0.189915 0.183365,-0.32482 0.115259,-0.128356 0.285527,-0.196463 0.171578,-0.06811 0.373281,-0.06811 0.209561,0 0.3759,0.06942 0.167648,0.06811 0.284217,0.195154 z m -0.02358,0.7518 q 0,-0.379829 -0.170268,-0.585461 -0.170268,-0.206941 -0.464964,-0.206941 -0.297314,0 -0.467582,0.206941 -0.168959,0.205632 -0.168959,0.585461 0,0.383758 0.172888,0.58808 0.172888,0.203012 0.463653,0.203012 0.290766,0 0.462344,-0.203012 0.172888,-0.204322 0.172888,-0.58808 z"
           id="path1410" />
        <path
           d="m 36.341779,54.834274 h -0.32089 L 35.096202,53.08968 v 1.744594 h -0.242305 v -1.950226 h 0.402095 l 0.843483,1.592663 v -1.592663 h 0.242304 z"
           id="path1412" />
      </g>
      <rect
         style="fill:#ffffff;fill-opacity:1;stroke:#000000;stroke-width:0;stroke-linecap:square;stroke-linejoin:miter;stroke-dasharray:none;stroke-opacity:1;paint-order:fill markers stroke"
         id="rect26649"
         width="7.725245"
         height="2.384335"
         x="37.055405"
         y="52.666992"
         ry="0.042335626" />
      <g
         aria-label="KODE"
         id="text26333"
         style="font-size:2.68238px;stroke:#000000;stroke-width:0;stroke-linecap:square;paint-order:fill markers stroke">
        <path
           d="m 38.807379,54.834274 h -0.336608 l -0.771446,-0.868368 -0.193844,0.206942 v 0.661426 H 37.24615 v -1.950226 h 0.259331 v 1.01768 l 0.946954,-1.01768 h 0.314341 l -0.870987,0.916829 z"
           id="path1393" />
        <path
           d="m 40.525778,53.108016 q 0.119188,0.130976 0.182056,0.32089 0.06418,0.189915 0.06418,0.43091 0,0.240995 -0.06549,0.432219 -0.06418,0.189915 -0.180747,0.316961 -0.120497,0.132286 -0.285526,0.199083 -0.16372,0.0668 -0.374591,0.0668 -0.205631,0 -0.37459,-0.06811 -0.167649,-0.06811 -0.285527,-0.197773 -0.117878,-0.129666 -0.182056,-0.31827 -0.06287,-0.188605 -0.06287,-0.43091 0,-0.238376 0.06287,-0.42698 0.06287,-0.189915 0.183366,-0.32482 0.115259,-0.128356 0.285527,-0.196463 0.171578,-0.06811 0.37328,-0.06811 0.209561,0 0.3759,0.06942 0.167649,0.06811 0.284217,0.195154 z m -0.02358,0.7518 q 0,-0.379829 -0.170269,-0.585461 -0.170268,-0.206941 -0.464963,-0.206941 -0.297314,0 -0.467583,0.206941 -0.168958,0.205632 -0.168958,0.585461 0,0.383758 0.172888,0.58808 0.172887,0.203012 0.463653,0.203012 0.290766,0 0.462344,-0.203012 0.172888,-0.204322 0.172888,-0.58808 z"
           id="path1395" />
        <path
           d="m 42.830949,53.861126 q 0,0.26588 -0.116569,0.48199 -0.115258,0.21611 -0.307792,0.335297 -0.133595,0.08252 -0.298624,0.119188 -0.16372,0.03667 -0.43222,0.03667 h -0.492468 v -1.950226 h 0.487229 q 0.285527,0 0.453176,0.04191 0.168958,0.0406 0.285526,0.112639 0.199083,0.124427 0.310412,0.331368 0.11133,0.206942 0.11133,0.491159 z m -0.27112,-0.0039 q 0,-0.229207 -0.0799,-0.386378 -0.0799,-0.15717 -0.238375,-0.247543 -0.115259,-0.06549 -0.244925,-0.09037 -0.129666,-0.02619 -0.310412,-0.02619 h -0.243614 v 1.50491 h 0.243614 q 0.187295,0 0.326129,-0.0275 0.140144,-0.0275 0.256712,-0.102161 0.145383,-0.09299 0.21742,-0.244924 0.07335,-0.151932 0.07335,-0.37983 z"
           id="path1397" />
        <path
           d="M 44.534941,54.834274 H 43.25007 v -1.950226 h 1.284871 v 0.230517 h -1.025539 v 0.53438 h 1.025539 v 0.230517 h -1.025539 v 0.724295 h 1.025539 z"
           id="path1399" />
      </g>
    </g>
    <path
       id="rect1635"
       style="fill:#000000;stroke:#ffffff;stroke-width:2.63588;stroke-linecap:round;stroke-linejoin:round"
       d="M 543.24155,1.1769791 H 913 V 124 H 543.24155 Z" />
    <path
       style="fill:#ffffff;stroke-width:1.22025"
       d="M 536.81011,61.999994 V 0 H 724.90521 913 V 61.999994 124 H 724.90521 536.81011 Z m 156.16046,39.477496 c 19.07116,-11.020401 24.45061,-47.741768 10.1101,-69.010755 -11.28549,-16.738084 -31.98645,-18.717526 -45.60687,-4.360989 -15.64711,16.492715 -15.48655,52.425692 0.30613,68.488105 9.36574,9.525819 23.71194,11.516729 35.19064,4.883639 z M 667.8427,94.984078 c -4.80014,-2.768071 -10.1712,-9.693982 -13.01295,-16.779503 -1.73284,-4.320818 -2.26033,-8.103116 -2.26033,-16.204581 0,-11.981063 2.04467,-18.675746 8.04776,-26.349025 4.8927,-6.253754 10.2371,-8.878231 18.07968,-8.878231 15.35925,0 26.03787,14.447487 26.03787,35.227256 0,20.955968 -10.70977,35.29605 -26.26822,35.172148 -3.80896,-0.03196 -8.58963,-1.014946 -10.62381,-2.188064 z M 568.51171,93.311597 V 82.350431 l 6.68694,-8.837862 6.68725,-8.83785 12.59778,19.701208 c 12.09576,18.916003 12.76104,19.705113 16.69011,19.799013 3.74276,0.0895 3.96952,-0.11264 2.65903,-2.36812 -1.91647,-3.297516 -22.9604,-36.898435 -25.47504,-40.675501 -1.97757,-2.970461 -1.93204,-3.057216 11.41579,-21.840887 l 13.40085,-18.858603 -3.57471,-0.475759 c -3.3929,-0.451512 -4.48892,0.787911 -21.53878,24.358718 -9.88035,13.658978 -18.32081,24.81111 -18.75694,24.78259 -0.43583,-0.02795 -0.79228,-11.148496 -0.79228,-24.711012 V 19.727279 h -3.17034 -3.17004 v 42.272715 42.272766 h 3.17004 3.17034 z m 219.49984,8.834373 c 8.23587,-3.261443 14.94588,-10.082504 18.70002,-19.009586 3.0044,-7.14437 3.25901,-8.796121 3.25901,-21.13639 0,-12.340228 -0.25461,-13.99198 -3.25901,-21.136338 -2.12224,-5.046405 -5.01551,-9.343005 -8.29428,-12.316422 -7.94951,-7.209545 -13.68931,-8.819955 -31.4353,-8.819955 H 751.3229 v 42.272715 42.272766 h 15.65909 c 10.88531,0 17.29608,-0.64835 21.02956,-2.12679 z M 757.66328,61.999994 V 28.181838 h 12.82214 c 15.94425,0 20.11236,1.574542 26.45244,9.992713 5.31685,7.059239 7.20905,13.313074 7.20905,23.825443 0,10.512369 -1.8922,16.766255 -7.20905,23.825494 -6.34008,8.418172 -10.50819,9.992714 -26.45244,9.992714 h -12.82214 z m 137.17856,38.397766 -0.33429,-3.875008 -18.75664,-0.384648 -18.75664,-0.384649 V 80.285911 64.818433 h 16.37919 16.37889 v -3.522749 -3.52271 H 873.37346 856.99427 V 43.010778 28.248622 l 18.22825,-0.385448 18.22825,-0.385447 0.33459,-3.875005 0.33429,-3.875004 H 872.38677 850.6539 V 62.000433 104.2732 h 22.26126 22.26127 z m -779.42575,3.21311 C 110.83761,101.7044 104.57754,96.133951 101.15631,90.921942 94.082413,80.145392 91.967056,60.882436 96.209841,45.878746 99.36676,34.71507 106.34279,25.412287 114.71583,21.200366 c 11.53989,-5.804957 26.13175,-2.468661 33.16856,7.583688 l 2.58632,3.694663 -2.29607,3.061691 -2.29604,3.06169 -2.40369,-3.009046 c -3.57999,-4.481575 -11.36694,-8.754289 -16.01839,-8.78936 -7.26078,-0.05472 -12.48108,2.966788 -18.12251,10.489483 -5.99516,7.994339 -7.88955,14.399796 -7.88955,26.676955 0,9.116929 1.58095,15.045841 5.7847,21.69395 5.00695,7.918289 10.41375,10.806387 20.28275,10.834267 8.09074,0.02396 8.94449,-0.269612 13.62359,-4.667588 l 4.99193,-4.691954 2.22709,3.032133 2.22708,3.032133 -3.61219,4.07412 c -1.9867,2.240747 -5.75669,5.048479 -8.37776,6.239379 -5.76616,2.61988 -17.00038,2.66561 -23.17556,0.0943 z m 216.84019,-0.74485 c -7.49038,-3.958127 -13.542,-11.358717 -17.02721,-20.822749 -2.54862,-6.92073 -2.97037,-9.766571 -2.97037,-20.043277 0,-10.276667 0.42175,-13.122507 2.97037,-20.043225 3.59125,-9.751979 9.6329,-16.961923 17.55167,-20.945732 4.7382,-2.383662 7.55562,-2.848675 14.3495,-2.368204 13.18914,0.932742 22.24713,8.577103 27.69635,23.37401 2.52449,6.855012 2.94831,9.727654 2.94831,19.983151 0,10.255497 -0.42382,13.128178 -2.94831,19.983203 -3.21971,8.742826 -7.87002,14.945453 -14.78099,19.715093 -6.47541,4.46904 -20.43209,5.05551 -27.78932,1.16773 z M 356.864,93.914891 c 18.59971,-12.825652 18.59477,-50.493941 -0.009,-63.949811 -4.70393,-3.402362 -18.97363,-3.402362 -23.67755,0 -5.30175,3.834822 -10.59033,11.94939 -12.39769,19.02245 -4.97277,19.460979 1.59541,39.631633 15.09823,46.366099 4.92406,2.455839 16.48717,1.663095 20.98543,-1.438738 z M 0,103.87657 C 0,103.65848 6.3780006,84.794446 14.173338,61.956097 L 28.346676,20.431829 h 3.883096 3.883066 l 14.173338,41.524268 c 7.795337,22.838349 14.173338,41.702543 14.173338,41.920473 0,0.21809 -1.698516,0.39623 -3.774483,0.39623 -3.696782,0 -3.852722,-0.23207 -7.576343,-11.272717 L 49.306827,81.727324 H 32.229772 15.152686 l -3.80186,11.272759 C 7.6272051,104.04081 7.4712942,104.2728 3.7744826,104.2728 1.6985157,104.2728 0,104.09466 0,103.87657 Z M 46.495398,74.148217 c 0,-0.775008 -13.676969,-42.128402 -14.135506,-42.739846 -0.314937,-0.419958 -11.451052,32.255039 -13.936311,40.891177 -0.623045,2.165056 0.625591,2.382265 13.693114,2.382265 7.908294,0 14.378703,-0.240056 14.378703,-0.533596 z M 200.77549,66.276583 V 28.280416 l -10.8313,-0.401584 -10.83134,-0.401544 -0.33434,-3.875005 -0.33438,-3.875004 h 25.95967 25.95963 v 4.227259 4.2273 h -11.09547 -11.09549 v 38.045456 38.045466 h -3.69849 -3.69849 z m 64.45948,-4.276589 V 19.727279 h 3.69849 3.69852 v 42.272715 42.272766 h -3.69852 -3.69849 z m 152.16668,0 V 19.727279 l 3.43433,0.08987 c 3.20478,0.08388 4.74074,2.320193 22.98349,33.465902 l 19.54919,33.376202 0.28337,-33.465913 0.28336,-33.465902 h 3.15102 3.15102 v 42.272716 42.272766 l -2.90596,-0.028 c -2.52861,-0.024 -5.4446,-4.350846 -22.45516,-33.322084 l -19.5492,-33.294866 -0.28336,33.322027 -0.28337,33.322083 h -3.67938 -3.67935 z"
       id="path1581" />
  </g>
</svg>
