<?xml version="1.0" encoding="UTF-8" standalone="no"?>
<!DOCTYPE svg PUBLIC "-//W3C//DTD SVG 20010904//EN"
              "http://www.w3.org/TR/2001/REC-SVG-20010904/DTD/svg10.dtd">

<svg xmlns="http://www.w3.org/2000/svg"
     width="12.6806in" height="1.72222in"
     viewBox="0 0 913 124">
  <path id="Selection"
        fill="none" stroke="black" stroke-width="1"
        d="M 533.00,18.00
           C 533.00,18.00 890.00,18.00 890.00,18.00
             890.00,18.00 890.00,107.00 890.00,107.00
             890.00,107.00 533.00,107.00 533.00,107.00
             533.00,107.00 533.00,18.00 533.00,18.00 Z
           M 660.00,32.32
           C 651.00,34.34 643.13,39.61 638.83,48.00
             635.86,53.82 635.93,58.69 636.00,65.00
             636.20,81.42 648.58,93.80 665.00,94.00
             674.41,94.11 681.49,93.28 688.91,86.67
             702.89,74.23 702.21,48.96 686.99,37.79
             678.82,31.80 669.73,31.26 660.00,32.32 Z
           M 136.00,32.53
           C 143.33,31.33 154.50,31.33 161.00,35.22
             163.96,36.99 170.06,42.14 164.84,45.26
             160.58,47.79 157.11,40.41 148.00,38.54
             135.58,35.99 122.19,50.05 121.19,62.00
             120.07,75.29 133.61,89.28 147.00,87.69
             155.23,86.71 158.87,82.23 161.98,81.70
             164.17,81.33 166.63,82.58 166.66,85.02
             166.70,87.46 163.84,89.39 161.99,90.52
             155.60,94.42 149.17,94.08 142.00,94.00
             137.65,93.94 135.08,93.58 131.00,91.91
             106.34,81.78 106.16,41.36 136.00,32.53 Z
           M 342.00,32.53
           C 353.37,30.67 366.25,31.61 374.82,40.18
             382.63,47.99 383.12,55.75 383.00,66.00
             382.87,76.64 377.41,85.63 368.00,90.68
             360.61,94.65 356.04,94.09 348.00,94.00
             334.94,93.84 323.48,84.87 320.53,72.00
             319.82,68.93 319.96,63.31 320.00,60.00
             320.17,46.11 328.98,36.38 342.00,32.53 Z
           M 564.00,33.00
           C 564.00,33.00 557.00,33.00 557.00,33.00
             557.00,33.00 557.00,93.00 557.00,93.00
             557.00,93.00 564.00,93.00 564.00,93.00
             564.00,89.90 563.68,81.49 564.60,79.00
             566.14,74.81 573.33,68.63 577.00,66.00
             577.00,66.00 591.13,84.00 591.13,84.00
             591.13,84.00 599.04,91.98 599.04,91.98
             599.04,91.98 608.00,93.00 608.00,93.00
             608.00,93.00 588.27,69.00 588.27,69.00
             586.19,66.56 581.78,62.46 583.03,59.00
             583.80,56.87 588.24,52.81 589.96,51.00
             589.96,51.00 606.00,33.00 606.00,33.00
             593.75,33.01 596.89,34.09 584.00,47.00
             577.80,53.21 569.10,61.26 564.00,68.00
             564.00,68.00 564.00,33.00 564.00,33.00 Z
           M 736.00,93.00
           C 736.00,93.00 761.00,93.00 761.00,93.00
             769.50,92.99 776.33,91.58 782.99,85.79
             795.37,75.01 796.38,53.87 784.91,42.04
             775.48,32.32 766.28,33.00 754.00,33.00
             754.00,33.00 736.00,33.00 736.00,33.00
             736.00,33.00 736.00,93.00 736.00,93.00 Z
           M 871.00,33.00
           C 871.00,33.00 830.00,33.00 830.00,33.00
             830.00,33.00 830.00,93.00 830.00,93.00
             830.00,93.00 873.00,93.00 873.00,93.00
             873.00,93.00 870.69,87.60 870.69,87.60
             870.69,87.60 860.00,87.00 860.00,87.00
             860.00,87.00 837.00,87.00 837.00,87.00
             837.00,87.00 837.00,66.00 837.00,66.00
             837.00,66.00 860.00,66.00 860.00,66.00
             860.00,66.00 866.40,64.98 866.40,64.98
             866.40,64.98 868.00,60.00 868.00,60.00
             868.00,60.00 837.00,60.00 837.00,60.00
             837.00,60.00 837.00,39.00 837.00,39.00
             837.00,39.00 871.00,39.00 871.00,39.00
             871.00,39.00 871.00,33.00 871.00,33.00 Z
           M 24.00,93.00
           C 24.00,93.00 45.22,46.00 45.22,46.00
             47.85,40.40 49.21,31.99 56.90,33.14
             62.08,33.91 64.26,42.81 66.25,47.00
             66.25,47.00 87.00,93.00 87.00,93.00
             85.03,93.00 80.96,93.17 79.27,92.40
             75.87,90.85 72.67,81.57 72.00,78.00
             72.00,78.00 46.00,78.00 46.00,78.00
             34.42,78.22 38.62,87.64 32.37,92.01
             30.48,93.32 26.29,93.00 24.00,93.00 Z
           M 194.00,33.00
           C 194.00,33.00 244.00,33.00 244.00,33.00
             244.00,33.00 244.00,39.00 244.00,39.00
             244.00,39.00 223.00,39.00 223.00,39.00
             223.00,39.00 223.00,93.00 223.00,93.00
             223.00,93.00 215.00,93.00 215.00,93.00
             215.00,93.00 215.00,39.00 215.00,39.00
             215.00,39.00 194.00,39.00 194.00,39.00
             194.00,39.00 194.00,33.00 194.00,33.00 Z
           M 276.00,33.00
           C 276.00,33.00 283.00,33.00 283.00,33.00
             283.00,33.00 283.00,93.00 283.00,93.00
             283.00,93.00 276.00,93.00 276.00,93.00
             276.00,93.00 276.00,33.00 276.00,33.00 Z
           M 420.00,33.00
           C 429.84,33.13 430.91,37.63 436.80,45.00
             436.80,45.00 463.00,78.00 463.00,78.00
             463.00,78.00 463.00,33.00 463.00,33.00
             463.00,33.00 471.00,33.00 471.00,33.00
             471.00,33.00 471.00,93.00 471.00,93.00
             460.10,92.96 459.82,88.31 453.20,80.00
             453.20,80.00 428.00,48.00 428.00,48.00
             428.00,48.00 428.00,93.00 428.00,93.00
             428.00,93.00 420.00,93.00 420.00,93.00
             420.00,93.00 420.00,33.00 420.00,33.00 Z
           M 349.00,38.30
           C 342.73,39.48 337.86,41.17 333.53,46.17
             320.24,61.54 329.14,86.09 350.00,87.81
             377.60,90.10 385.69,48.63 360.00,39.76
             355.99,38.38 353.20,37.98 349.00,38.30 Z
           M 662.00,38.47
           C 670.38,37.30 678.70,38.79 684.82,45.10
             698.23,58.95 691.62,83.83 672.00,87.53
             644.17,92.78 634.64,58.97 650.18,44.33
             653.75,40.97 657.36,39.57 662.00,38.47 Z
           M 743.00,39.00
           C 753.35,39.00 767.24,37.32 775.98,43.25
             789.78,52.59 788.80,75.97 774.00,83.96
             765.80,88.38 752.34,87.00 743.00,87.00
             743.00,87.00 743.00,39.00 743.00,39.00 Z
           M 56.00,42.00
           C 56.00,42.00 42.00,72.00 42.00,72.00
             42.00,72.00 68.00,72.00 68.00,72.00
             68.00,72.00 56.00,42.00 56.00,42.00 Z" />
</svg>
